<svg xmlns="http://www.w3.org/2000/svg" width="32" height="32" viewBox="0 0 32 32" fill="none">
  <defs>
    <linearGradient id="wechatGrad" x1="0%" y1="0%" x2="100%" y2="100%">
      <stop offset="0%" style="stop-color:#07C160;stop-opacity:1" />
      <stop offset="100%" style="stop-color:#00A862;stop-opacity:1" />
    </linearGradient>
  </defs>
  <circle cx="16" cy="16" r="15" fill="url(#wechatGrad)" stroke="#fff" stroke-width="1"/>
  <path d="M12 7C8.7 7 6 9.4 6 12.3c0 1.8 1 3.4 2.6 4.4L8 19l2.4-.6c.5.1 1 .2 1.6.2 3.3 0 6-2.4 6-5.3S15.3 8 12 8z" fill="#fff"/>
  <circle cx="10" cy="11.5" r="0.8" fill="#07C160"/>
  <circle cx="14" cy="11.5" r="0.8" fill="#07C160"/>
  <path d="M20 13c-2.8 0-5 2-5 4.5s2.2 4.5 5 4.5c.4 0 .8 0 1.2-.1L24 23l-.8-1.5c1-.8 1.8-2 1.8-3.5 0-2.5-2.2-4.5-5-4.5z" fill="#fff"/>
  <circle cx="18.5" cy="16.8" r="0.6" fill="#07C160"/>
  <circle cx="21.5" cy="16.8" r="0.6" fill="#07C160"/>
</svg>