<svg xmlns="http://www.w3.org/2000/svg" width="24" height="24" viewBox="0 0 24 24" fill="none" stroke="currentColor" stroke-width="2" stroke-linecap="round" stroke-linejoin="round">
  <path d="M8.5 14c0 1.5-1.3 2.5-2.8 2.5S3 15.5 3 14s1.3-2.5 2.8-2.5S8.5 12.5 8.5 14z"/>
  <path d="M21 14c0 1.5-1.3 2.5-2.8 2.5S15.5 15.5 15.5 14s1.3-2.5 2.8-2.5 2.7 1 2.7 2.5z"/>
  <path d="M12 8c-4 0-7 2.7-7 6 0 1.2.4 2.3 1.2 3.3L4 21l3.7-2.2c1 .5 2.1.7 3.3.7 4.4 0 8-3.1 8-7"/>
  <path d="M16 6c-2.5 0-4.5 1.8-4.5 4s2 4 4.5 4c.8 0 1.5-.2 2.2-.5L20 15l-1.2-1.8c.5-.8.7-1.6.7-2.2 0-2.2-2-4-4.5-4z"/>
</svg>