<svg xmlns="http://www.w3.org/2000/svg" width="32" height="32" viewBox="0 0 32 32" fill="none">
  <defs>
    <linearGradient id="whatsappGrad" x1="0%" y1="0%" x2="100%" y2="100%">
      <stop offset="0%" style="stop-color:#25D366;stop-opacity:1" />
      <stop offset="100%" style="stop-color:#128C7E;stop-opacity:1" />
    </linearGradient>
  </defs>
  <circle cx="16" cy="16" r="15" fill="url(#whatsappGrad)" stroke="#fff" stroke-width="1"/>
  <path d="M12.5 9.5c.5-.8 1.2-1.2 2-1.2s1.5.4 2 1.2l.5.8c.3.5.2 1.1-.2 1.5l-.8.8c-.2.2-.3.5-.2.8.5 1.5 1.7 2.7 3.2 3.2.3.1.6 0 .8-.2l.8-.8c.4-.4 1-.5 1.5-.2l.8.5c.8.5 1.2 1.2 1.2 2s-.4 1.5-1.2 2c-.8.5-1.8.7-2.8.5-3-1-5.5-3.5-6.5-6.5-.2-1 0-2 .5-2.8z" fill="#fff"/>
  <path d="M16 6C10.5 6 6 10.5 6 16c0 1.8.5 3.5 1.3 5L6 26l5-1.3c1.5.8 3.2 1.3 5 1.3 5.5 0 10-4.5 10-10S21.5 6 16 6zm0 18c-1.5 0-3-.4-4.2-1.2L10 23.5l.7-1.8C10 20.5 9.5 18.3 9.5 16c0-3.6 2.9-6.5 6.5-6.5s6.5 2.9 6.5 6.5-2.9 6.5-6.5 6.5z" fill="#fff"/>
</svg>