<svg xmlns="http://www.w3.org/2000/svg" width="200" height="60" viewBox="0 0 200 60" fill="none">
  <defs>
    <linearGradient id="phoneBg" x1="0%" y1="0%" x2="100%" y2="0%">
      <stop offset="0%" style="stop-color:#25D366;stop-opacity:0.1" />
      <stop offset="100%" style="stop-color:#128C7E;stop-opacity:0.1" />
    </linearGradient>
  </defs>
  <rect width="200" height="60" rx="30" fill="url(#phoneBg)" stroke="#25D366" stroke-width="1"/>
  
  <!-- WhatsApp Icon -->
  <circle cx="30" cy="30" r="15" fill="#25D366"/>
  <path d="M22 21c.3-.5.7-.8 1.3-.8s1 .3 1.3.8l.3.5c.2.3.1.7-.1 1l-.5.5c-.1.1-.2.3-.1.5.3 1 1.1 1.8 2.1 2.1.2.1.4 0 .5-.1l.5-.5c.3-.3.7-.3 1-.1l.5.3c.5.3.8.7.8 1.3s-.3 1-.8 1.3c-.5.3-1.2.5-1.8.3-2-.7-3.6-2.3-4.3-4.3-.1-.7 0-1.3.3-1.8z" fill="#fff"/>
  
  <!-- Phone Number Text -->
  <text x="55" y="25" font-family="Arial, sans-serif" font-size="14" font-weight="600" fill="#25D366">WhatsApp</text>
  <text x="55" y="42" font-family="Courier, monospace" font-size="12" fill="#666">+86 150 1370 2378</text>
</svg>